<svg width="99" height="99" viewBox="0 0 99 99" fill="none" xmlns="http://www.w3.org/2000/svg">
<path d="M66.15 25.825C68.0867 24.9078 70.2043 26.693 69.6279 28.757L66.754 39.0468C66.3001 40.6721 67.0704 42.3898 68.5859 43.1318L78.1812 47.8298C80.1058 48.7721 80.0304 51.5408 78.0573 52.3769L68.2205 56.5457C66.6669 57.2041 65.8042 58.8773 66.169 60.5248L68.4784 70.9559C68.9417 73.0482 66.7301 74.7154 64.8461 73.6942L55.4537 68.6026C53.9703 67.7984 52.1242 68.1672 51.0636 69.4796L44.3482 77.7889C43.0012 79.4556 40.3188 78.766 39.9426 76.6563L38.0673 66.1385C37.7711 64.4773 36.3318 63.2639 34.6444 63.253L23.961 63.1834C21.8181 63.1695 20.6848 60.6423 22.0996 59.0328L29.1535 51.0089C30.2677 49.7416 30.3189 47.8598 29.2754 46.5337L22.6688 38.1377C21.3436 36.4536 22.6128 33.9919 24.7533 34.0946L35.4247 34.6067C37.1102 34.6876 38.6134 33.5544 38.9996 31.9117L41.4447 21.5116C41.9351 19.4256 44.6511 18.883 45.9054 20.6206L52.1585 29.2831C53.1461 30.6513 54.9693 31.12 56.4944 30.3978L66.15 25.825Z" stroke="#191717"/>
<path d="M41.5302 46.537C41.4882 46.607 41.4416 46.6607 41.3902 46.698C41.3436 46.7307 41.2852 46.747 41.2152 46.747C41.1359 46.747 41.0426 46.7073 40.9352 46.628C40.8279 46.5487 40.6926 46.4623 40.5292 46.369C40.3706 46.271 40.1769 46.1823 39.9482 46.103C39.7242 46.0237 39.4512 45.984 39.1292 45.984C38.8259 45.984 38.5576 46.026 38.3242 46.11C38.0956 46.1893 37.9019 46.299 37.7432 46.439C37.5892 46.579 37.4726 46.7447 37.3932 46.936C37.3139 47.1227 37.2742 47.3257 37.2742 47.545C37.2742 47.825 37.3419 48.0583 37.4772 48.245C37.6172 48.427 37.7992 48.5833 38.0232 48.714C38.2519 48.8447 38.5086 48.959 38.7932 49.057C39.0826 49.1503 39.3766 49.2483 39.6752 49.351C39.9786 49.4537 40.2726 49.5703 40.5572 49.701C40.8466 49.827 41.1032 49.988 41.3272 50.184C41.5559 50.38 41.7379 50.6203 41.8732 50.905C42.0132 51.1897 42.0832 51.5397 42.0832 51.955C42.0832 52.3937 42.0086 52.8067 41.8592 53.194C41.7099 53.5767 41.4906 53.9103 41.2012 54.195C40.9166 54.4797 40.5642 54.7037 40.1442 54.867C39.7289 55.0303 39.2552 55.112 38.7232 55.112C38.0699 55.112 37.4772 54.9953 36.9452 54.762C36.4132 54.524 35.9582 54.2043 35.5802 53.803L35.9722 53.159C36.0096 53.1077 36.0539 53.0657 36.1052 53.033C36.1612 52.9957 36.2219 52.977 36.2872 52.977C36.3479 52.977 36.4156 53.0027 36.4902 53.054C36.5696 53.1007 36.6582 53.1613 36.7562 53.236C36.8542 53.3107 36.9662 53.3923 37.0922 53.481C37.2182 53.5697 37.3606 53.6513 37.5192 53.726C37.6826 53.8007 37.8669 53.8637 38.0722 53.915C38.2776 53.9617 38.5086 53.985 38.7652 53.985C39.0872 53.985 39.3742 53.9407 39.6262 53.852C39.8782 53.7633 40.0906 53.6397 40.2632 53.481C40.4406 53.3177 40.5759 53.124 40.6692 52.9C40.7626 52.676 40.8092 52.4263 40.8092 52.151C40.8092 51.8477 40.7392 51.6003 40.5992 51.409C40.4639 51.213 40.2842 51.0497 40.0602 50.919C39.8362 50.7883 39.5796 50.6787 39.2902 50.59C39.0009 50.4967 38.7069 50.4033 38.4082 50.31C38.1096 50.212 37.8156 50.1 37.5262 49.974C37.2369 49.848 36.9802 49.6847 36.7562 49.484C36.5322 49.2833 36.3502 49.0337 36.2102 48.735C36.0749 48.4317 36.0072 48.0583 36.0072 47.615C36.0072 47.2603 36.0749 46.9173 36.2102 46.586C36.3502 46.2547 36.5509 45.9607 36.8122 45.704C37.0782 45.4473 37.4026 45.242 37.7852 45.088C38.1726 44.934 38.6159 44.857 39.1152 44.857C39.6752 44.857 40.1839 44.9457 40.6412 45.123C41.1032 45.3003 41.5092 45.557 41.8592 45.893L41.5302 46.537ZM47.4541 51.808C46.8801 51.8267 46.3901 51.8733 45.9841 51.948C45.5828 52.018 45.2538 52.1113 44.9971 52.228C44.7451 52.3447 44.5608 52.4823 44.4441 52.641C44.3321 52.7997 44.2761 52.977 44.2761 53.173C44.2761 53.3597 44.3064 53.5207 44.3671 53.656C44.4278 53.7913 44.5094 53.9033 44.6121 53.992C44.7194 54.076 44.8431 54.139 44.9831 54.181C45.1278 54.2183 45.2818 54.237 45.4451 54.237C45.6644 54.237 45.8651 54.216 46.0471 54.174C46.2291 54.1273 46.3994 54.062 46.5581 53.978C46.7214 53.894 46.8754 53.7937 47.0201 53.677C47.1694 53.5603 47.3141 53.4273 47.4541 53.278V51.808ZM43.4291 48.91C43.8211 48.532 44.2434 48.2497 44.6961 48.063C45.1488 47.8763 45.6504 47.783 46.2011 47.783C46.5978 47.783 46.9501 47.8483 47.2581 47.979C47.5661 48.1097 47.8251 48.2917 48.0351 48.525C48.2451 48.7583 48.4038 49.0407 48.5111 49.372C48.6184 49.7033 48.6721 50.0673 48.6721 50.464V55H48.1191C47.9978 55 47.9044 54.9813 47.8391 54.944C47.7738 54.902 47.7224 54.8227 47.6851 54.706L47.5451 54.034C47.3584 54.2067 47.1764 54.3607 46.9991 54.496C46.8218 54.6267 46.6351 54.7387 46.4391 54.832C46.2431 54.9207 46.0331 54.9883 45.8091 55.035C45.5898 55.0863 45.3448 55.112 45.0741 55.112C44.7988 55.112 44.5398 55.0747 44.2971 55C44.0544 54.9207 43.8421 54.804 43.6601 54.65C43.4828 54.496 43.3404 54.3023 43.2331 54.069C43.1304 53.831 43.0791 53.551 43.0791 53.229C43.0791 52.949 43.1561 52.6807 43.3101 52.424C43.4641 52.1627 43.7138 51.9317 44.0591 51.731C44.4044 51.5303 44.8548 51.367 45.4101 51.241C45.9654 51.1103 46.6468 51.0357 47.4541 51.017V50.464C47.4541 49.9133 47.3351 49.498 47.0971 49.218C46.8591 48.9333 46.5114 48.791 46.0541 48.791C45.7461 48.791 45.4871 48.8307 45.2771 48.91C45.0718 48.9847 44.8921 49.071 44.7381 49.169C44.5888 49.2623 44.4581 49.3487 44.3461 49.428C44.2388 49.5027 44.1314 49.54 44.0241 49.54C43.9401 49.54 43.8678 49.519 43.8071 49.477C43.7464 49.4303 43.6951 49.3743 43.6531 49.309L43.4291 48.91ZM51.8581 44.689V55H50.6121V44.689H51.8581ZM58.6247 50.681C58.6247 50.3917 58.5827 50.128 58.4987 49.89C58.4193 49.6473 58.3003 49.4397 58.1417 49.267C57.9877 49.0897 57.7987 48.9543 57.5747 48.861C57.3507 48.763 57.0963 48.714 56.8117 48.714C56.2143 48.714 55.7407 48.889 55.3907 49.239C55.0453 49.5843 54.8307 50.065 54.7467 50.681H58.6247ZM59.6327 54.006C59.4787 54.1927 59.2943 54.356 59.0797 54.496C58.865 54.6313 58.634 54.7433 58.3867 54.832C58.144 54.9207 57.892 54.986 57.6307 55.028C57.3693 55.0747 57.1103 55.098 56.8537 55.098C56.3637 55.098 55.911 55.0163 55.4957 54.853C55.085 54.685 54.728 54.4423 54.4247 54.125C54.126 53.803 53.8927 53.4063 53.7247 52.935C53.5567 52.4637 53.4727 51.9223 53.4727 51.311C53.4727 50.8163 53.5473 50.3543 53.6967 49.925C53.8507 49.4957 54.07 49.1247 54.3547 48.812C54.6393 48.4947 54.987 48.2473 55.3977 48.07C55.8083 47.888 56.2703 47.797 56.7837 47.797C57.2083 47.797 57.6003 47.8693 57.9597 48.014C58.3237 48.154 58.6363 48.3593 58.8977 48.63C59.1637 48.896 59.3713 49.2273 59.5207 49.624C59.67 50.016 59.7447 50.464 59.7447 50.968C59.7447 51.164 59.7237 51.2947 59.6817 51.36C59.6397 51.4253 59.5603 51.458 59.4437 51.458H54.7047C54.7187 51.906 54.7793 52.2957 54.8867 52.627C54.9987 52.9583 55.1527 53.236 55.3487 53.46C55.5447 53.6793 55.778 53.845 56.0487 53.957C56.3193 54.0643 56.6227 54.118 56.9587 54.118C57.2713 54.118 57.5397 54.083 57.7637 54.013C57.9923 53.9383 58.1883 53.859 58.3517 53.775C58.515 53.691 58.6503 53.614 58.7577 53.544C58.8697 53.4693 58.9653 53.432 59.0447 53.432C59.1473 53.432 59.2267 53.4717 59.2827 53.551L59.6327 54.006ZM62.7731 44.969V48.973C62.7731 49.183 62.7685 49.3883 62.7591 49.589C62.7498 49.7897 62.7381 49.9927 62.7241 50.198C62.7101 50.3987 62.6915 50.6063 62.6681 50.821C62.6495 51.031 62.6261 51.2573 62.5981 51.5H61.7581C61.7301 51.2573 61.7045 51.031 61.6811 50.821C61.6625 50.6063 61.6461 50.3987 61.6321 50.198C61.6181 49.9927 61.6065 49.7897 61.5971 49.589C61.5878 49.3883 61.5831 49.183 61.5831 48.973V44.969H62.7731ZM61.2821 54.23C61.2821 54.1087 61.3031 53.9943 61.3451 53.887C61.3918 53.7797 61.4548 53.6863 61.5341 53.607C61.6135 53.5277 61.7045 53.4647 61.8071 53.418C61.9145 53.3713 62.0311 53.348 62.1571 53.348C62.2785 53.348 62.3905 53.3713 62.4931 53.418C62.6005 53.4647 62.6938 53.5277 62.7731 53.607C62.8525 53.6863 62.9155 53.7797 62.9621 53.887C63.0088 53.9943 63.0321 54.1087 63.0321 54.23C63.0321 54.356 63.0088 54.4727 62.9621 54.58C62.9155 54.6827 62.8525 54.7737 62.7731 54.853C62.6938 54.9323 62.6005 54.993 62.4931 55.035C62.3905 55.0817 62.2785 55.105 62.1571 55.105C62.0311 55.105 61.9145 55.0817 61.8071 55.035C61.7045 54.993 61.6135 54.9323 61.5341 54.853C61.4548 54.7737 61.3918 54.6827 61.3451 54.58C61.3031 54.4727 61.2821 54.356 61.2821 54.23Z" fill="#191717"/>
</svg>
