<svg width="32" height="31" viewBox="0 0 32 31" fill="none" xmlns="http://www.w3.org/2000/svg">
<path d="M7.65217 31C6.26087 31 4.96232 30.4683 3.75652 29.4049C2.5971 28.2953 1.66957 26.862 0.973913 25.1051C0.324638 23.3482 0 21.4758 0 19.4877C0 16.4362 0.533333 13.5697 1.6 10.8881C2.71304 8.16033 4.05797 5.87174 5.63478 4.02237C7.21159 2.12677 8.71884 0.785981 10.1565 0H10.2261L12.6609 2.21924V3.19016C11.5014 4.25354 10.4116 5.77927 9.3913 7.76734C8.37101 9.70917 7.86087 12.1133 7.86087 14.9799C7.86087 16.4594 8.06957 17.6614 8.48696 18.5861C8.90435 19.5108 9.53043 20.528 10.3652 21.6376C11.0609 22.516 11.571 23.2789 11.8957 23.9262C12.2203 24.5735 12.3826 25.3594 12.3826 26.2841C12.3826 27.6711 11.9188 28.8039 10.9913 29.6823C10.1101 30.5608 8.9971 31 7.65217 31ZM26.9913 31C25.6 31 24.3246 30.4683 23.1652 29.4049C22.0058 28.2953 21.0783 26.862 20.3826 25.1051C19.7333 23.3482 19.4087 21.4758 19.4087 19.4877C19.4087 16.4362 19.942 13.5697 21.0087 10.8881C22.1217 8.16033 23.4667 5.84862 25.0435 3.95302C26.6203 2.05742 28.1275 0.739745 29.5652 0H29.6348L32 2.21924V3.19016C30.8406 4.25354 29.7507 5.77927 28.7304 7.76734C27.7101 9.70917 27.2 12.1133 27.2 14.9799C27.2 16.4594 27.4087 17.6614 27.8261 18.5861C28.2435 19.5108 28.8696 20.528 29.7043 21.6376C30.4 22.516 30.9101 23.2789 31.2348 23.9262C31.5594 24.5735 31.7217 25.3594 31.7217 26.2841C31.7217 27.6711 31.258 28.8039 30.3304 29.6823C29.4493 30.5608 28.3362 31 26.9913 31Z" fill="#EEEAF3"/>
</svg>
