<svg width="104" height="20" viewBox="0 0 104 20" fill="none" xmlns="http://www.w3.org/2000/svg">
<path d="M9.05544 2.71739C9.36673 1.82183 10.6333 1.82183 10.9446 2.71739L12.1227 6.10665C12.26 6.50172 12.6287 6.76959 13.0469 6.77811L16.6343 6.85122C17.5822 6.87053 17.9736 8.07508 17.2181 8.64788L14.3587 10.8157C14.0254 11.0684 13.8846 11.5018 14.0057 11.9021L15.0448 15.3366C15.3193 16.2441 14.2947 16.9885 13.5164 16.447L10.5712 14.3975C10.2279 14.1586 9.77214 14.1586 9.42882 14.3975L6.48356 16.447C5.70532 16.9885 4.68067 16.2441 4.95522 15.3366L5.99427 11.9021C6.11539 11.5018 5.97456 11.0684 5.64126 10.8157L2.78194 8.64788C2.02641 8.07508 2.41779 6.87053 3.36571 6.85122L6.95314 6.77811C7.37131 6.76959 7.74 6.50172 7.87733 6.10665L9.05544 2.71739Z" fill="#967BB6"/>
<path d="M30.0554 2.71739C30.3667 1.82183 31.6333 1.82183 31.9446 2.71739L33.1227 6.10665C33.26 6.50172 33.6287 6.76959 34.0469 6.77811L37.6343 6.85122C38.5822 6.87053 38.9736 8.07508 38.2181 8.64788L35.3587 10.8157C35.0254 11.0684 34.8846 11.5018 35.0057 11.9021L36.0448 15.3366C36.3193 16.2441 35.2947 16.9885 34.5164 16.447L31.5712 14.3975C31.2279 14.1586 30.7721 14.1586 30.4288 14.3975L27.4836 16.447C26.7053 16.9885 25.6807 16.2441 25.9552 15.3366L26.9943 11.9021C27.1154 11.5018 26.9746 11.0684 26.6413 10.8157L23.7819 8.64788C23.0264 8.07508 23.4178 6.87053 24.3657 6.85122L27.9531 6.77811C28.3713 6.76959 28.74 6.50172 28.8773 6.10665L30.0554 2.71739Z" fill="#967BB6"/>
<path d="M51.0554 2.71739C51.3667 1.82183 52.6333 1.82183 52.9446 2.71739L54.1227 6.10665C54.26 6.50172 54.6287 6.76959 55.0469 6.77811L58.6343 6.85122C59.5822 6.87053 59.9736 8.07508 59.2181 8.64788L56.3587 10.8157C56.0254 11.0684 55.8846 11.5018 56.0057 11.9021L57.0448 15.3366C57.3193 16.2441 56.2947 16.9885 55.5164 16.447L52.5712 14.3975C52.2279 14.1586 51.7721 14.1586 51.4288 14.3975L48.4836 16.447C47.7053 16.9885 46.6807 16.2441 46.9552 15.3366L47.9943 11.9021C48.1154 11.5018 47.9746 11.0684 47.6413 10.8157L44.7819 8.64788C44.0264 8.07508 44.4178 6.87053 45.3657 6.85122L48.9531 6.77811C49.3713 6.76959 49.74 6.50172 49.8773 6.10665L51.0554 2.71739Z" fill="#967BB6"/>
<path d="M72.0554 2.71739C72.3667 1.82183 73.6333 1.82183 73.9446 2.71739L75.1227 6.10665C75.26 6.50172 75.6287 6.76959 76.0469 6.77811L79.6343 6.85122C80.5822 6.87053 80.9736 8.07508 80.2181 8.64788L77.3587 10.8157C77.0254 11.0684 76.8846 11.5018 77.0057 11.9021L78.0448 15.3366C78.3193 16.2441 77.2947 16.9885 76.5164 16.447L73.5712 14.3975C73.2279 14.1586 72.7721 14.1586 72.4288 14.3975L69.4836 16.447C68.7053 16.9885 67.6807 16.2441 67.9552 15.3366L68.9943 11.9021C69.1154 11.5018 68.9746 11.0684 68.6413 10.8157L65.7819 8.64788C65.0264 8.07508 65.4178 6.87053 66.3657 6.85122L69.9531 6.77811C70.3713 6.76959 70.74 6.50172 70.8773 6.10665L72.0554 2.71739Z" fill="#967BB6"/>
<path d="M93.0554 2.71739C93.3667 1.82183 94.6333 1.82183 94.9446 2.71739L96.1227 6.10665C96.26 6.50172 96.6287 6.76959 97.0469 6.77811L100.634 6.85122C101.582 6.87053 101.974 8.07508 101.218 8.64788L98.3587 10.8157C98.0254 11.0684 97.8846 11.5018 98.0057 11.9021L99.0448 15.3366C99.3193 16.2441 98.2947 16.9885 97.5164 16.447L94.5712 14.3975C94.2279 14.1586 93.7721 14.1586 93.4288 14.3975L90.4836 16.447C89.7053 16.9885 88.6807 16.2441 88.9552 15.3366L89.9943 11.9021C90.1154 11.5018 89.9746 11.0684 89.6413 10.8157L86.7819 8.64788C86.0264 8.07508 86.4178 6.87053 87.3657 6.85122L90.9531 6.77811C91.3713 6.76959 91.74 6.50172 91.8773 6.10665L93.0554 2.71739Z" fill="#D3C8E0"/>
</svg>
